<svg width="84" height="41" viewBox="0 0 84 41" fill="none" xmlns="http://www.w3.org/2000/svg">
<path d="M28.648 29.06C28.496 29.06 28.368 29.008 28.264 28.904C28.16 28.8 28.108 28.672 28.108 28.52V21.644H25.66C25.516 21.644 25.396 21.596 25.3 21.5C25.204 21.404 25.156 21.284 25.156 21.14C25.156 20.996 25.204 20.876 25.3 20.78C25.396 20.676 25.516 20.624 25.66 20.624H31.636C31.78 20.624 31.9 20.676 31.996 20.78C32.1 20.876 32.152 20.996 32.152 21.14C32.152 21.284 32.1 21.404 31.996 21.5C31.9 21.596 31.78 21.644 31.636 21.644H29.2V28.52C29.2 28.672 29.144 28.8 29.032 28.904C28.928 29.008 28.8 29.06 28.648 29.06ZM35.2231 29.12C34.2471 29.12 33.4831 28.844 32.9311 28.292C32.3871 27.732 32.1151 26.948 32.1151 25.94C32.1151 25.372 32.2191 24.848 32.4271 24.368C32.6351 23.888 32.9551 23.5 33.3871 23.204C33.8191 22.908 34.3511 22.76 34.9831 22.76C35.5751 22.76 36.0871 22.9 36.5191 23.18C36.9511 23.452 37.2791 23.82 37.5031 24.284C37.7271 24.74 37.8391 25.24 37.8391 25.784C37.8391 25.936 37.7871 26.064 37.6831 26.168C37.5871 26.272 37.4551 26.324 37.2871 26.324H33.2191C33.2831 26.884 33.4911 27.32 33.8431 27.632C34.1951 27.944 34.6871 28.1 35.3191 28.1C35.6551 28.1 35.9471 28.068 36.1951 28.004C36.4511 27.94 36.6991 27.848 36.9391 27.728C37.0031 27.696 37.0751 27.68 37.1551 27.68C37.2831 27.68 37.3951 27.724 37.4911 27.812C37.5871 27.9 37.6351 28.012 37.6351 28.148C37.6351 28.324 37.5311 28.472 37.3231 28.592C37.0111 28.768 36.7031 28.9 36.3991 28.988C36.0951 29.076 35.7031 29.12 35.2231 29.12ZM36.7591 25.436C36.7351 25.044 36.6311 24.716 36.4471 24.452C36.2711 24.188 36.0511 23.996 35.7871 23.876C35.5231 23.748 35.2551 23.684 34.9831 23.684C34.7111 23.684 34.4431 23.748 34.1791 23.876C33.9151 23.996 33.6951 24.188 33.5191 24.452C33.3431 24.716 33.2431 25.044 33.2191 25.436H36.7591ZM41.3973 29.06C41.2533 29.06 41.1213 29.02 41.0013 28.94C40.8813 28.852 40.7933 28.744 40.7373 28.616L38.6493 23.624C38.6093 23.528 38.5893 23.444 38.5893 23.372C38.5893 23.22 38.6413 23.092 38.7453 22.988C38.8493 22.876 38.9773 22.82 39.1293 22.82C39.2333 22.82 39.3293 22.852 39.4173 22.916C39.5133 22.972 39.5813 23.044 39.6213 23.132L41.4573 27.788L43.2933 23.132C43.3333 23.044 43.3973 22.972 43.4853 22.916C43.5813 22.852 43.6813 22.82 43.7853 22.82C43.9373 22.82 44.0653 22.876 44.1693 22.988C44.2733 23.092 44.3253 23.22 44.3253 23.372C44.3253 23.444 44.3053 23.528 44.2653 23.624L42.1773 28.616C42.1213 28.744 42.0333 28.852 41.9133 28.94C41.7933 29.02 41.6613 29.06 41.5173 29.06H41.3973ZM46.1046 21.632C45.9366 21.632 45.7926 21.572 45.6726 21.452C45.5526 21.332 45.4926 21.188 45.4926 21.02V20.972C45.4926 20.804 45.5526 20.66 45.6726 20.54C45.7926 20.42 45.9366 20.36 46.1046 20.36H46.1766C46.3446 20.36 46.4886 20.42 46.6086 20.54C46.7286 20.66 46.7886 20.804 46.7886 20.972V21.02C46.7886 21.188 46.7286 21.332 46.6086 21.452C46.4886 21.572 46.3446 21.632 46.1766 21.632H46.1046ZM46.1286 29.06C45.9766 29.06 45.8486 29.008 45.7446 28.904C45.6406 28.8 45.5886 28.672 45.5886 28.52V23.372C45.5886 23.22 45.6406 23.092 45.7446 22.988C45.8486 22.876 45.9766 22.82 46.1286 22.82C46.2886 22.82 46.4206 22.872 46.5246 22.976C46.6286 23.08 46.6806 23.212 46.6806 23.372V28.52C46.6806 28.672 46.6246 28.8 46.5126 28.904C46.4086 29.008 46.2806 29.06 46.1286 29.06ZM48.7569 29.06C48.5969 29.06 48.4689 29.012 48.3729 28.916C48.2849 28.812 48.2409 28.676 48.2409 28.508C48.2409 28.388 48.2809 28.276 48.3609 28.172L50.2209 25.976L48.3609 23.708C48.2729 23.596 48.2289 23.48 48.2289 23.36C48.2289 23.2 48.2809 23.072 48.3849 22.976C48.4889 22.872 48.6169 22.82 48.7689 22.82C48.9609 22.82 49.1049 22.888 49.2009 23.024L50.8809 25.1L52.5489 23.024C52.6449 22.888 52.7849 22.82 52.9689 22.82C53.1289 22.82 53.2609 22.872 53.3649 22.976C53.4689 23.072 53.5209 23.192 53.5209 23.336C53.5209 23.456 53.4809 23.568 53.4009 23.672L51.5049 25.904L53.3769 28.16C53.4649 28.256 53.5089 28.372 53.5089 28.508C53.5089 28.66 53.4609 28.792 53.3649 28.904C53.2689 29.008 53.1329 29.06 52.9569 29.06C52.7809 29.06 52.6409 28.988 52.5369 28.844L50.8329 26.804L49.2249 28.82C49.1049 28.98 48.9489 29.06 48.7569 29.06ZM57.4488 29.12C56.9528 29.12 56.4808 28.996 56.0328 28.748C55.5928 28.492 55.2328 28.124 54.9528 27.644C54.6808 27.156 54.5448 26.588 54.5448 25.94C54.5448 25.292 54.6808 24.728 54.9528 24.248C55.2328 23.76 55.5928 23.392 56.0328 23.144C56.4808 22.888 56.9528 22.76 57.4488 22.76C58.2328 22.76 58.9168 23.064 59.5008 23.672V20.732C59.5008 20.572 59.5528 20.44 59.6568 20.336C59.7688 20.232 59.9008 20.18 60.0528 20.18C60.2048 20.18 60.3328 20.236 60.4368 20.348C60.5408 20.452 60.5928 20.58 60.5928 20.732V28.52C60.5928 28.672 60.5408 28.8 60.4368 28.904C60.3328 29.008 60.2048 29.06 60.0528 29.06C59.9008 29.06 59.7688 29.008 59.6568 28.904C59.5528 28.8 59.5008 28.672 59.5008 28.52V28.208C58.9168 28.816 58.2328 29.12 57.4488 29.12ZM57.6048 28.1C57.9728 28.1 58.3168 28.02 58.6368 27.86C58.9648 27.692 59.2528 27.472 59.5008 27.2V24.68C59.2528 24.408 58.9648 24.192 58.6368 24.032C58.3168 23.864 57.9728 23.78 57.6048 23.78C57.0128 23.78 56.5368 23.968 56.1768 24.344C55.8168 24.72 55.6368 25.252 55.6368 25.94C55.6368 26.628 55.8168 27.16 56.1768 27.536C56.5368 27.912 57.0128 28.1 57.6048 28.1ZM65.2231 29.12C64.2471 29.12 63.4831 28.844 62.9311 28.292C62.3871 27.732 62.1151 26.948 62.1151 25.94C62.1151 25.372 62.2191 24.848 62.4271 24.368C62.6351 23.888 62.9551 23.5 63.3871 23.204C63.8191 22.908 64.3511 22.76 64.9831 22.76C65.5751 22.76 66.0871 22.9 66.5191 23.18C66.9511 23.452 67.2791 23.82 67.5031 24.284C67.7271 24.74 67.8391 25.24 67.8391 25.784C67.8391 25.936 67.7871 26.064 67.6831 26.168C67.5871 26.272 67.4551 26.324 67.2871 26.324H63.2191C63.2831 26.884 63.4911 27.32 63.8431 27.632C64.1951 27.944 64.6871 28.1 65.3191 28.1C65.6551 28.1 65.9471 28.068 66.1951 28.004C66.4511 27.94 66.6991 27.848 66.9391 27.728C67.0031 27.696 67.0751 27.68 67.1551 27.68C67.2831 27.68 67.3951 27.724 67.4911 27.812C67.5871 27.9 67.6351 28.012 67.6351 28.148C67.6351 28.324 67.5311 28.472 67.3231 28.592C67.0111 28.768 66.7031 28.9 66.3991 28.988C66.0951 29.076 65.7031 29.12 65.2231 29.12ZM66.7591 25.436C66.7351 25.044 66.6311 24.716 66.4471 24.452C66.2711 24.188 66.0511 23.996 65.7871 23.876C65.5231 23.748 65.2551 23.684 64.9831 23.684C64.7111 23.684 64.4431 23.748 64.1791 23.876C63.9151 23.996 63.6951 24.188 63.5191 24.452C63.3431 24.716 63.2431 25.044 63.2191 25.436H66.7591ZM71.3973 29.06C71.2533 29.06 71.1213 29.02 71.0013 28.94C70.8813 28.852 70.7933 28.744 70.7373 28.616L68.6493 23.624C68.6093 23.528 68.5893 23.444 68.5893 23.372C68.5893 23.22 68.6413 23.092 68.7453 22.988C68.8493 22.876 68.9773 22.82 69.1293 22.82C69.2333 22.82 69.3293 22.852 69.4173 22.916C69.5133 22.972 69.5813 23.044 69.6213 23.132L71.4573 27.788L73.2933 23.132C73.3333 23.044 73.3973 22.972 73.4853 22.916C73.5813 22.852 73.6813 22.82 73.7853 22.82C73.9373 22.82 74.0653 22.876 74.1693 22.988C74.2733 23.092 74.3253 23.22 74.3253 23.372C74.3253 23.444 74.3053 23.528 74.2653 23.624L72.1773 28.616C72.1213 28.744 72.0333 28.852 71.9133 28.94C71.7933 29.02 71.6613 29.06 71.5173 29.06H71.3973Z" fill="black"/>
<path d="M74.705 18.4393C73.6558 19.7679 74.8625 21.6766 76.5127 21.2987L78.1142 20.932C79.5629 20.6003 80.749 22.0996 80.1122 23.4423V23.4423C79.2956 25.1638 76.6697 24.3438 77.0531 22.4774L77.6054 19.7888C77.9541 18.0915 75.7788 17.0793 74.705 18.4393V18.4393Z" fill="#7510F7"/>
<path d="M11.4436 25.6459C14.9184 29.3757 21.1683 27.2944 21.7131 22.2259L22.6653 13.369C22.9895 10.3526 26.2965 8.65439 28.9369 10.1483V10.1483C32.3971 12.106 30.8324 17.3949 26.8641 17.1549L15.7636 16.4836C10.8472 16.1863 8.08618 22.0422 11.4436 25.6459V25.6459Z" fill="#7510F7"/>
</svg>
