<svg width="55" height="21" viewBox="0 0 55 21" fill="none" xmlns="http://www.w3.org/2000/svg">
<g clip-path="url(#clip0_249_29)">
<path d="M43.9331 13.0892L47.5 17.845L51.0669 13.0892L50.1831 11.9108L47.5 15.4883L44.8169 11.9108L43.9331 13.0892ZM51.0669 6.91083L47.5 2.155L43.9331 6.91083L44.8169 8.08917L47.5 4.51167L50.1831 8.08917L51.0669 6.91083Z" fill="#7510F7"/>
</g>
<path d="M3.648 18.06C3.496 18.06 3.368 18.008 3.264 17.904C3.16 17.8 3.108 17.672 3.108 17.52V10.644H0.66C0.516 10.644 0.396 10.596 0.3 10.5C0.204 10.404 0.156 10.284 0.156 10.14C0.156 9.99601 0.204 9.87601 0.3 9.78001C0.396 9.67601 0.516 9.62402 0.66 9.62402H6.636C6.78 9.62402 6.9 9.67601 6.996 9.78001C7.1 9.87601 7.152 9.99601 7.152 10.14C7.152 10.284 7.1 10.404 6.996 10.5C6.9 10.596 6.78 10.644 6.636 10.644H4.2V17.52C4.2 17.672 4.144 17.8 4.032 17.904C3.928 18.008 3.8 18.06 3.648 18.06ZM10.2231 18.12C9.24706 18.12 8.48306 17.844 7.93106 17.292C7.38706 16.732 7.11506 15.948 7.11506 14.94C7.11506 14.372 7.21906 13.848 7.42706 13.368C7.63506 12.888 7.95506 12.5 8.38706 12.204C8.81906 11.908 9.35106 11.76 9.98306 11.76C10.5751 11.76 11.0871 11.9 11.5191 12.18C11.9511 12.452 12.2791 12.82 12.5031 13.284C12.7271 13.74 12.8391 14.24 12.8391 14.784C12.8391 14.936 12.7871 15.064 12.6831 15.168C12.5871 15.272 12.4551 15.324 12.2871 15.324H8.21906C8.28306 15.884 8.49106 16.32 8.84306 16.632C9.19506 16.944 9.68706 17.1 10.3191 17.1C10.6551 17.1 10.9471 17.068 11.1951 17.004C11.4511 16.94 11.6991 16.848 11.9391 16.728C12.0031 16.696 12.0751 16.68 12.1551 16.68C12.2831 16.68 12.3951 16.724 12.4911 16.812C12.5871 16.9 12.6351 17.012 12.6351 17.148C12.6351 17.324 12.5311 17.472 12.3231 17.592C12.0111 17.768 11.7031 17.9 11.3991 17.988C11.0951 18.076 10.7031 18.12 10.2231 18.12ZM11.7591 14.436C11.7351 14.044 11.6311 13.716 11.4471 13.452C11.2711 13.188 11.0511 12.996 10.7871 12.876C10.5231 12.748 10.2551 12.684 9.98306 12.684C9.71106 12.684 9.44306 12.748 9.17906 12.876C8.91506 12.996 8.69506 13.188 8.51906 13.452C8.34306 13.716 8.24306 14.044 8.21906 14.436H11.7591ZM16.3973 18.06C16.2533 18.06 16.1213 18.02 16.0013 17.94C15.8813 17.852 15.7933 17.744 15.7373 17.616L13.6493 12.624C13.6093 12.528 13.5893 12.444 13.5893 12.372C13.5893 12.22 13.6413 12.092 13.7453 11.988C13.8493 11.876 13.9773 11.82 14.1293 11.82C14.2333 11.82 14.3293 11.852 14.4173 11.916C14.5133 11.972 14.5813 12.044 14.6213 12.132L16.4573 16.788L18.2933 12.132C18.3333 12.044 18.3973 11.972 18.4853 11.916C18.5813 11.852 18.6813 11.82 18.7853 11.82C18.9373 11.82 19.0653 11.876 19.1693 11.988C19.2733 12.092 19.3253 12.22 19.3253 12.372C19.3253 12.444 19.3053 12.528 19.2653 12.624L17.1773 17.616C17.1213 17.744 17.0333 17.852 16.9133 17.94C16.7933 18.02 16.6613 18.06 16.5173 18.06H16.3973ZM21.1046 10.632C20.9366 10.632 20.7926 10.572 20.6726 10.452C20.5526 10.332 20.4926 10.188 20.4926 10.02V9.97201C20.4926 9.80401 20.5526 9.66001 20.6726 9.54001C20.7926 9.42001 20.9366 9.36001 21.1046 9.36001H21.1766C21.3446 9.36001 21.4886 9.42001 21.6086 9.54001C21.7286 9.66001 21.7886 9.80401 21.7886 9.97201V10.02C21.7886 10.188 21.7286 10.332 21.6086 10.452C21.4886 10.572 21.3446 10.632 21.1766 10.632H21.1046ZM21.1286 18.06C20.9766 18.06 20.8486 18.008 20.7446 17.904C20.6406 17.8 20.5886 17.672 20.5886 17.52V12.372C20.5886 12.22 20.6406 12.092 20.7446 11.988C20.8486 11.876 20.9766 11.82 21.1286 11.82C21.2886 11.82 21.4206 11.872 21.5246 11.976C21.6286 12.08 21.6806 12.212 21.6806 12.372V17.52C21.6806 17.672 21.6246 17.8 21.5126 17.904C21.4086 18.008 21.2806 18.06 21.1286 18.06ZM23.7569 18.06C23.5969 18.06 23.4689 18.012 23.3729 17.916C23.2849 17.812 23.2409 17.676 23.2409 17.508C23.2409 17.388 23.2809 17.276 23.3609 17.172L25.2209 14.976L23.3609 12.708C23.2729 12.596 23.2289 12.48 23.2289 12.36C23.2289 12.2 23.2809 12.072 23.3849 11.976C23.4889 11.872 23.6169 11.82 23.7689 11.82C23.9609 11.82 24.1049 11.888 24.2009 12.024L25.8809 14.1L27.5489 12.024C27.6449 11.888 27.7849 11.82 27.9689 11.82C28.1289 11.82 28.2609 11.872 28.3649 11.976C28.4689 12.072 28.5209 12.192 28.5209 12.336C28.5209 12.456 28.4809 12.568 28.4009 12.672L26.5049 14.904L28.3769 17.16C28.4649 17.256 28.5089 17.372 28.5089 17.508C28.5089 17.66 28.4609 17.792 28.3649 17.904C28.2689 18.008 28.1329 18.06 27.9569 18.06C27.7809 18.06 27.6409 17.988 27.5369 17.844L25.8329 15.804L24.2249 17.82C24.1049 17.98 23.9489 18.06 23.7569 18.06ZM32.4488 18.12C31.9528 18.12 31.4808 17.996 31.0328 17.748C30.5928 17.492 30.2328 17.124 29.9528 16.644C29.6808 16.156 29.5448 15.588 29.5448 14.94C29.5448 14.292 29.6808 13.728 29.9528 13.248C30.2328 12.76 30.5928 12.392 31.0328 12.144C31.4808 11.888 31.9528 11.76 32.4488 11.76C33.2328 11.76 33.9168 12.064 34.5008 12.672V9.73202C34.5008 9.57201 34.5528 9.44001 34.6568 9.33601C34.7688 9.23201 34.9008 9.18002 35.0528 9.18002C35.2048 9.18002 35.3328 9.23602 35.4368 9.34802C35.5408 9.45202 35.5928 9.58002 35.5928 9.73202V17.52C35.5928 17.672 35.5408 17.8 35.4368 17.904C35.3328 18.008 35.2048 18.06 35.0528 18.06C34.9008 18.06 34.7688 18.008 34.6568 17.904C34.5528 17.8 34.5008 17.672 34.5008 17.52V17.208C33.9168 17.816 33.2328 18.12 32.4488 18.12ZM32.6048 17.1C32.9728 17.1 33.3168 17.02 33.6368 16.86C33.9648 16.692 34.2528 16.472 34.5008 16.2V13.68C34.2528 13.408 33.9648 13.192 33.6368 13.032C33.3168 12.864 32.9728 12.78 32.6048 12.78C32.0128 12.78 31.5368 12.968 31.1768 13.344C30.8168 13.72 30.6368 14.252 30.6368 14.94C30.6368 15.628 30.8168 16.16 31.1768 16.536C31.5368 16.912 32.0128 17.1 32.6048 17.1ZM40.2231 18.12C39.2471 18.12 38.4831 17.844 37.9311 17.292C37.3871 16.732 37.1151 15.948 37.1151 14.94C37.1151 14.372 37.2191 13.848 37.4271 13.368C37.6351 12.888 37.9551 12.5 38.3871 12.204C38.8191 11.908 39.3511 11.76 39.9831 11.76C40.5751 11.76 41.0871 11.9 41.5191 12.18C41.9511 12.452 42.2791 12.82 42.5031 13.284C42.7271 13.74 42.8391 14.24 42.8391 14.784C42.8391 14.936 42.7871 15.064 42.6831 15.168C42.5871 15.272 42.4551 15.324 42.2871 15.324H38.2191C38.2831 15.884 38.4911 16.32 38.8431 16.632C39.1951 16.944 39.6871 17.1 40.3191 17.1C40.6551 17.1 40.9471 17.068 41.1951 17.004C41.4511 16.94 41.6991 16.848 41.9391 16.728C42.0031 16.696 42.0751 16.68 42.1551 16.68C42.2831 16.68 42.3951 16.724 42.4911 16.812C42.5871 16.9 42.6351 17.012 42.6351 17.148C42.6351 17.324 42.5311 17.472 42.3231 17.592C42.0111 17.768 41.7031 17.9 41.3991 17.988C41.0951 18.076 40.7031 18.12 40.2231 18.12ZM41.7591 14.436C41.7351 14.044 41.6311 13.716 41.4471 13.452C41.2711 13.188 41.0511 12.996 40.7871 12.876C40.5231 12.748 40.2551 12.684 39.9831 12.684C39.7111 12.684 39.4431 12.748 39.1791 12.876C38.9151 12.996 38.6951 13.188 38.5191 13.452C38.3431 13.716 38.2431 14.044 38.2191 14.436H41.7591Z" fill="#7510F7"/>
<defs>
<clipPath id="clip0_249_29">
<rect width="20" height="15" fill="white" transform="translate(40 20) rotate(-90)"/>
</clipPath>
</defs>
</svg>
