<svg width="52" height="19" viewBox="0 0 52 19" fill="none" xmlns="http://www.w3.org/2000/svg">
<path d="M43.9331 11.0892L47.5 15.845L51.0669 11.0892L50.1831 9.91083L47.5 13.4883L44.8169 9.91083L43.9331 11.0892ZM51.0669 4.91083L47.5 0.154999L43.9331 4.91083L44.8169 6.08917L47.5 2.51167L50.1831 6.08917L51.0669 4.91083Z" fill="black"/>
<path d="M3.648 16.06C3.496 16.06 3.368 16.008 3.264 15.904C3.16 15.8 3.108 15.672 3.108 15.52V8.64401H0.66C0.516 8.64401 0.396 8.59601 0.3 8.50002C0.204 8.40402 0.156 8.28401 0.156 8.14001C0.156 7.99601 0.204 7.87601 0.3 7.78001C0.396 7.67601 0.516 7.62402 0.66 7.62402H6.636C6.78 7.62402 6.9 7.67601 6.996 7.78001C7.1 7.87601 7.152 7.99601 7.152 8.14001C7.152 8.28401 7.1 8.40402 6.996 8.50002C6.9 8.59601 6.78 8.64401 6.636 8.64401H4.2V15.52C4.2 15.672 4.144 15.8 4.032 15.904C3.928 16.008 3.8 16.06 3.648 16.06ZM10.2231 16.12C9.24706 16.12 8.48306 15.844 7.93106 15.292C7.38706 14.732 7.11506 13.948 7.11506 12.94C7.11506 12.372 7.21906 11.848 7.42706 11.368C7.63506 10.888 7.95506 10.5 8.38706 10.204C8.81906 9.90801 9.35106 9.76001 9.98306 9.76001C10.5751 9.76001 11.0871 9.90001 11.5191 10.18C11.9511 10.452 12.2791 10.82 12.5031 11.284C12.7271 11.74 12.8391 12.24 12.8391 12.784C12.8391 12.936 12.7871 13.064 12.6831 13.168C12.5871 13.272 12.4551 13.324 12.2871 13.324H8.21906C8.28306 13.884 8.49106 14.32 8.84306 14.632C9.19506 14.944 9.68706 15.1 10.3191 15.1C10.6551 15.1 10.9471 15.068 11.1951 15.004C11.4511 14.94 11.6991 14.848 11.9391 14.728C12.0031 14.696 12.0751 14.68 12.1551 14.68C12.2831 14.68 12.3951 14.724 12.4911 14.812C12.5871 14.9 12.6351 15.012 12.6351 15.148C12.6351 15.324 12.5311 15.472 12.3231 15.592C12.0111 15.768 11.7031 15.9 11.3991 15.988C11.0951 16.076 10.7031 16.12 10.2231 16.12ZM11.7591 12.436C11.7351 12.044 11.6311 11.716 11.4471 11.452C11.2711 11.188 11.0511 10.996 10.7871 10.876C10.5231 10.748 10.2551 10.684 9.98306 10.684C9.71106 10.684 9.44306 10.748 9.17906 10.876C8.91506 10.996 8.69506 11.188 8.51906 11.452C8.34306 11.716 8.24306 12.044 8.21906 12.436H11.7591ZM16.3973 16.06C16.2533 16.06 16.1213 16.02 16.0013 15.94C15.8813 15.852 15.7933 15.744 15.7373 15.616L13.6493 10.624C13.6093 10.528 13.5893 10.444 13.5893 10.372C13.5893 10.22 13.6413 10.092 13.7453 9.98801C13.8493 9.87601 13.9773 9.82001 14.1293 9.82001C14.2333 9.82001 14.3293 9.85201 14.4173 9.91601C14.5133 9.97202 14.5813 10.044 14.6213 10.132L16.4573 14.788L18.2933 10.132C18.3333 10.044 18.3973 9.97202 18.4853 9.91601C18.5813 9.85201 18.6813 9.82001 18.7853 9.82001C18.9373 9.82001 19.0653 9.87601 19.1693 9.98801C19.2733 10.092 19.3253 10.22 19.3253 10.372C19.3253 10.444 19.3053 10.528 19.2653 10.624L17.1773 15.616C17.1213 15.744 17.0333 15.852 16.9133 15.94C16.7933 16.02 16.6613 16.06 16.5173 16.06H16.3973ZM21.1046 8.63201C20.9366 8.63201 20.7926 8.57202 20.6726 8.45202C20.5526 8.33201 20.4926 8.18801 20.4926 8.02002V7.97201C20.4926 7.80401 20.5526 7.66001 20.6726 7.54001C20.7926 7.42001 20.9366 7.36001 21.1046 7.36001H21.1766C21.3446 7.36001 21.4886 7.42001 21.6086 7.54001C21.7286 7.66001 21.7886 7.80401 21.7886 7.97201V8.02002C21.7886 8.18801 21.7286 8.33201 21.6086 8.45202C21.4886 8.57202 21.3446 8.63201 21.1766 8.63201H21.1046ZM21.1286 16.06C20.9766 16.06 20.8486 16.008 20.7446 15.904C20.6406 15.8 20.5886 15.672 20.5886 15.52V10.372C20.5886 10.22 20.6406 10.092 20.7446 9.98801C20.8486 9.87601 20.9766 9.82001 21.1286 9.82001C21.2886 9.82001 21.4206 9.87201 21.5246 9.97601C21.6286 10.08 21.6806 10.212 21.6806 10.372V15.52C21.6806 15.672 21.6246 15.8 21.5126 15.904C21.4086 16.008 21.2806 16.06 21.1286 16.06ZM23.7569 16.06C23.5969 16.06 23.4689 16.012 23.3729 15.916C23.2849 15.812 23.2409 15.676 23.2409 15.508C23.2409 15.388 23.2809 15.276 23.3609 15.172L25.2209 12.976L23.3609 10.708C23.2729 10.596 23.2289 10.48 23.2289 10.36C23.2289 10.2 23.2809 10.072 23.3849 9.97601C23.4889 9.87201 23.6169 9.82001 23.7689 9.82001C23.9609 9.82001 24.1049 9.88801 24.2009 10.024L25.8809 12.1L27.5489 10.024C27.6449 9.88801 27.7849 9.82001 27.9689 9.82001C28.1289 9.82001 28.2609 9.87201 28.3649 9.97601C28.4689 10.072 28.5209 10.192 28.5209 10.336C28.5209 10.456 28.4809 10.568 28.4009 10.672L26.5049 12.904L28.3769 15.16C28.4649 15.256 28.5089 15.372 28.5089 15.508C28.5089 15.66 28.4609 15.792 28.3649 15.904C28.2689 16.008 28.1329 16.06 27.9569 16.06C27.7809 16.06 27.6409 15.988 27.5369 15.844L25.8329 13.804L24.2249 15.82C24.1049 15.98 23.9489 16.06 23.7569 16.06ZM32.4488 16.12C31.9528 16.12 31.4808 15.996 31.0328 15.748C30.5928 15.492 30.2328 15.124 29.9528 14.644C29.6808 14.156 29.5448 13.588 29.5448 12.94C29.5448 12.292 29.6808 11.728 29.9528 11.248C30.2328 10.76 30.5928 10.392 31.0328 10.144C31.4808 9.88801 31.9528 9.76001 32.4488 9.76001C33.2328 9.76001 33.9168 10.064 34.5008 10.672V7.73202C34.5008 7.57201 34.5528 7.44001 34.6568 7.33601C34.7688 7.23201 34.9008 7.18002 35.0528 7.18002C35.2048 7.18002 35.3328 7.23602 35.4368 7.34802C35.5408 7.45202 35.5928 7.58002 35.5928 7.73202V15.52C35.5928 15.672 35.5408 15.8 35.4368 15.904C35.3328 16.008 35.2048 16.06 35.0528 16.06C34.9008 16.06 34.7688 16.008 34.6568 15.904C34.5528 15.8 34.5008 15.672 34.5008 15.52V15.208C33.9168 15.816 33.2328 16.12 32.4488 16.12ZM32.6048 15.1C32.9728 15.1 33.3168 15.02 33.6368 14.86C33.9648 14.692 34.2528 14.472 34.5008 14.2V11.68C34.2528 11.408 33.9648 11.192 33.6368 11.032C33.3168 10.864 32.9728 10.78 32.6048 10.78C32.0128 10.78 31.5368 10.968 31.1768 11.344C30.8168 11.72 30.6368 12.252 30.6368 12.94C30.6368 13.628 30.8168 14.16 31.1768 14.536C31.5368 14.912 32.0128 15.1 32.6048 15.1ZM40.2231 16.12C39.2471 16.12 38.4831 15.844 37.9311 15.292C37.3871 14.732 37.1151 13.948 37.1151 12.94C37.1151 12.372 37.2191 11.848 37.4271 11.368C37.6351 10.888 37.9551 10.5 38.3871 10.204C38.8191 9.90801 39.3511 9.76001 39.9831 9.76001C40.5751 9.76001 41.0871 9.90001 41.5191 10.18C41.9511 10.452 42.2791 10.82 42.5031 11.284C42.7271 11.74 42.8391 12.24 42.8391 12.784C42.8391 12.936 42.7871 13.064 42.6831 13.168C42.5871 13.272 42.4551 13.324 42.2871 13.324H38.2191C38.2831 13.884 38.4911 14.32 38.8431 14.632C39.1951 14.944 39.6871 15.1 40.3191 15.1C40.6551 15.1 40.9471 15.068 41.1951 15.004C41.4511 14.94 41.6991 14.848 41.9391 14.728C42.0031 14.696 42.0751 14.68 42.1551 14.68C42.2831 14.68 42.3951 14.724 42.4911 14.812C42.5871 14.9 42.6351 15.012 42.6351 15.148C42.6351 15.324 42.5311 15.472 42.3231 15.592C42.0111 15.768 41.7031 15.9 41.3991 15.988C41.0951 16.076 40.7031 16.12 40.2231 16.12ZM41.7591 12.436C41.7351 12.044 41.6311 11.716 41.4471 11.452C41.2711 11.188 41.0511 10.996 40.7871 10.876C40.5231 10.748 40.2551 10.684 39.9831 10.684C39.7111 10.684 39.4431 10.748 39.1791 10.876C38.9151 10.996 38.6951 11.188 38.5191 11.452C38.3431 11.716 38.2431 12.044 38.2191 12.436H41.7591Z" fill="black"/>
</svg>
